<svg id="Layer_1" data-name="Layer 1" xmlns="http://www.w3.org/2000/svg" viewBox="0 0 655.56 77.94"><rect width="655.56" height="77.94" fill="#df1f33"/><path d="M116.67,58.87V77.94H102.39V28h14.28V47H131V28h14.28v50H131V58.87Z" fill="#fff"/><path d="M184.5,28V39.81h-22v7.57h20.13V58.09H162.51v7.85h22v12H148.8V28Z" fill="#fff"/><path d="M202.92,70.8l-2.64,7.14H185.14l20-50H218l20,50H222.84l-2.53-7.14Zm13.6-10.71-4.71-13.28-4.93,13.28Z" fill="#fff"/><path d="M253.43,63.52h-1.07V77.94H238.51V28h23.06q12.26,0,16.57,7.14a15.88,15.88,0,0,1,3.28,10.14v.86q0,12.13-12.88,16.34,10.27,13.22,13.88,15.5H265.64Q262.19,75.72,253.43,63.52Zm-1.07-23.85v12h6.5q6.72,0,7.71-1.57a7,7,0,0,0,1.14-3.85q0-6.57-8.42-6.57Z" fill="#fff"/><path d="M316.87,28V39.81H306.16V77.94H291.88V39.81H281.17V28Z" fill="#fff"/><path d="M320.44,28h23.92q10.14,0,14.07,4.85A12.12,12.12,0,0,1,361,40.67a10.73,10.73,0,0,1-5.36,9.71v.14q7.53,3.1,7.54,11.85v.86q0,9.88-10,13.85a16.35,16.35,0,0,1-5.11.86H320.44Zm13.82,10.57v9h9.46q4.21,0,4.21-4.92,0-3.43-3.57-3.89a13.82,13.82,0,0,0-2.57-.18Zm0,19v9.39h10.49a4.29,4.29,0,0,0,4.36-2.82,9.75,9.75,0,0,0,.36-2.36c0-2.81-1.84-4.21-5.5-4.21Z" fill="#fff"/><path d="M401.34,28V39.81h-22v7.57h20.13V58.09H379.35v7.85h22v12h-35.7V28Z" fill="#fff"/><path d="M419.76,70.8l-2.64,7.14H402l20-50h12.85l20,50H439.68l-2.54-7.14Zm13.6-10.71-4.71-13.28-4.93,13.28Z" fill="#fff"/><path d="M483.2,28V39.81H472.49V77.94H458.21V39.81H447.5V28Z" fill="#fff"/><path d="M517.4,70.8l-2.65,7.14H499.62l20-50h12.85l20,50H537.32l-2.54-7.14ZM531,60.09l-4.71-13.28-4.93,13.28Z" fill="#fff"/><path d="M580.83,28V39.81H570.12V77.94H555.84V39.81h-10.7V28Z" fill="#fff"/><path d="M598.26,28v37.7H620.1V77.94H584.4V28Z" fill="#fff"/></svg>